<svg width="53" height="53" viewBox="0 0 53 53" fill="none" xmlns="http://www.w3.org/2000/svg">
<rect width="53" height="53" rx="10" fill="#D4E9FF"/>
<path d="M21.0327 9.23058C17.2947 10.5273 14.0711 12.9886 11.8353 16.2529C9.59945 19.5172 8.46936 23.4124 8.61098 27.3664C8.75259 31.3204 10.1584 35.1248 12.622 38.2208C15.0856 41.3168 18.4771 43.5411 22.2983 44.5672C25.3962 45.3665 28.642 45.4016 31.7565 44.6695C34.5779 44.0357 37.1864 42.6801 39.3265 40.7354C41.5539 38.6495 43.1707 35.996 44.003 33.0601C44.9076 29.8675 45.0686 26.5099 44.4735 23.2454H27.0771V30.4618H37.1519C36.9506 31.6127 36.5191 32.7112 35.8833 33.6915C35.2475 34.6719 34.4205 35.5138 33.4517 36.1671C32.2214 36.9808 30.8346 37.5284 29.3802 37.7746C27.9216 38.0458 26.4254 38.0458 24.9668 37.7746C23.4884 37.4689 22.0899 36.8588 20.8603 35.9829C18.8849 34.5846 17.4017 32.5981 16.6222 30.3069C15.8296 27.9727 15.8296 25.4422 16.6222 23.108C17.1771 21.4719 18.0942 19.9822 19.3054 18.7501C20.6913 17.3143 22.446 16.288 24.3769 15.7837C26.3077 15.2795 28.3402 15.3168 30.2512 15.8916C31.7441 16.3499 33.1093 17.1506 34.2379 18.2299C35.3739 17.0997 36.508 15.9666 37.64 14.8307C38.2246 14.2198 38.8618 13.6382 39.4376 13.0127C37.7148 11.4095 35.6925 10.162 33.4868 9.34165C29.47 7.88314 25.0749 7.84395 21.0327 9.23058Z" fill="#344759"/>
<path d="M21.0327 9.23054C25.0746 7.84296 29.4696 7.88113 33.4868 9.33868C35.6929 10.1646 37.7142 11.4181 39.4347 13.0272C38.8501 13.6527 38.2334 14.2373 37.6371 14.8452C36.5031 15.9773 35.37 17.1055 34.2379 18.2298C33.1093 17.1505 31.7441 16.3499 30.2512 15.8916C28.3408 15.3147 26.3084 15.2752 24.3771 15.7774C22.4457 16.2796 20.6899 17.3041 19.3024 18.7384C18.0913 19.9705 17.1741 21.4601 16.6193 23.0963L10.5604 18.4052C12.7291 14.1045 16.4841 10.8148 21.0327 9.23054Z" fill="#344759"/>
<path d="M8.95281 23.0525C9.27847 21.4385 9.81914 19.8755 10.5603 18.4052L16.6193 23.108C15.8267 25.4421 15.8267 27.9727 16.6193 30.3068C14.6006 31.8657 12.581 33.4323 10.5603 35.0067C8.70481 31.3132 8.13891 27.1049 8.95281 23.0525Z" fill="#344759"/>
<path d="M27.0771 23.2425H44.4736C45.0687 26.5071 44.9077 29.8646 44.003 33.0572C43.1707 35.9931 41.5539 38.6466 39.3265 40.7325C37.3712 39.2068 35.4071 37.6928 33.4517 36.1671C34.4211 35.5132 35.2486 34.6703 35.8844 33.6889C36.5202 32.7076 36.9514 31.6079 37.152 30.4559H27.0771C27.0742 28.0534 27.0771 25.648 27.0771 23.2425Z" fill="#344759"/>
<path d="M10.5574 35.0067C12.5781 33.4479 14.5977 31.8812 16.6164 30.3068C17.3974 32.5989 18.8827 34.5855 20.8603 35.9829C22.0937 36.8547 23.4953 37.4599 24.9756 37.7599C26.4342 38.0312 27.9304 38.0312 29.389 37.7599C30.8434 37.5138 32.2302 36.9662 33.4604 36.1524C35.4158 37.6781 37.3799 39.1921 39.3353 40.7178C37.1955 42.6636 34.5869 44.0202 31.7652 44.6548C28.6507 45.387 25.405 45.3519 22.3071 44.5525C19.8569 43.8983 17.5683 42.7451 15.5846 41.165C13.4851 39.4981 11.7703 37.3974 10.5574 35.0067Z" fill="#344759"/>
</svg>
