<svg width="53" height="53" viewBox="0 0 53 53" fill="none" xmlns="http://www.w3.org/2000/svg">
<rect width="53" height="53" rx="10" fill="#D4E9FF"/>
<path d="M36.8877 43.6424C34.8733 45.6989 32.6739 45.3742 30.5567 44.4001C28.3161 43.4043 26.2606 43.361 23.8967 44.4001C20.9367 45.7422 19.3745 45.3526 17.6068 43.6424C7.57577 32.7537 9.05576 16.1716 20.4434 15.5655C23.2184 15.717 25.1506 17.1674 26.7745 17.2973C29.2 16.7777 31.5228 15.284 34.1127 15.4789C37.2166 15.7386 39.5599 17.0375 41.1016 19.3754C34.6883 23.4235 36.2094 32.3207 42.0882 34.8102C40.9166 38.0573 39.3955 41.2828 36.8672 43.664L36.8877 43.6424ZM26.5689 15.4356C26.2606 10.6082 29.9811 6.62501 34.2566 6.23535C34.8527 11.8204 29.4467 15.9768 26.5689 15.4356Z" fill="#344759"/>
</svg>
