<svg width="38" height="38" viewBox="0 0 38 38" fill="none" xmlns="http://www.w3.org/2000/svg">
<path d="M13.0327 1.23052C9.29471 2.52727 6.07105 4.98855 3.83525 8.25283C1.59945 11.5171 0.469365 15.4123 0.610977 19.3664C0.752589 23.3204 2.15844 27.1248 4.62203 30.2208C7.08562 33.3167 10.4771 35.5411 14.2983 36.5671C17.3962 37.3665 20.642 37.4016 23.7565 36.6694C26.5779 36.0356 29.1864 34.68 31.3265 32.7353C33.5539 30.6495 35.1707 27.9959 36.003 25.0601C36.9076 21.8674 37.0686 18.5099 36.4735 15.2453H19.0771V22.4617H29.1519C28.9506 23.6127 28.5191 24.7112 27.8833 25.6915C27.2475 26.6718 26.4205 27.5138 25.4517 28.167C24.2214 28.9808 22.8346 29.5284 21.3802 29.7745C19.9216 30.0458 18.4254 30.0458 16.9668 29.7745C15.4884 29.4689 14.0899 28.8587 12.8603 27.9829C10.8849 26.5846 9.40167 24.598 8.62223 22.3068C7.82961 19.9726 7.82961 17.4421 8.62223 15.1079C9.17705 13.4718 10.0942 11.9821 11.3054 10.7501C12.6913 9.31423 14.446 8.28789 16.3769 7.78365C18.3077 7.27941 20.3402 7.31675 22.2512 7.89157C23.7441 8.34984 25.1093 9.15053 26.2379 10.2298C27.3739 9.09966 28.508 7.96659 29.64 6.8306C30.2246 6.21973 30.8618 5.63809 31.4376 5.01262C29.7148 3.4094 27.6925 2.16189 25.4868 1.34159C21.47 -0.116916 17.0749 -0.156112 13.0327 1.23052Z" fill="#344759"/>
<path d="M13.0327 1.23048C17.0746 -0.157099 21.4696 -0.118935 25.4868 1.33862C27.6929 2.1645 29.7142 3.41801 31.4347 5.02719C30.8501 5.65267 30.2334 6.23722 29.6371 6.84517C28.5031 7.97726 27.37 9.10546 26.2379 10.2298C25.1093 9.15048 23.7441 8.3498 22.2512 7.89153C20.3408 7.31469 18.3084 7.27519 16.3771 7.77737C14.4457 8.27955 12.6899 9.304 11.3024 10.7383C10.0913 11.9704 9.17414 13.4601 8.61932 15.0962L2.56036 10.4051C4.7291 6.10442 8.48413 2.8147 13.0327 1.23048Z" fill="#344759"/>
<path d="M0.952811 15.0524C1.27847 13.4384 1.81914 11.8754 2.56035 10.4052L8.6193 15.1079C7.82668 17.4421 7.82668 19.9726 8.6193 22.3068C6.60062 23.8656 4.58097 25.4322 2.56035 27.0066C0.704814 23.3131 0.138908 19.1049 0.952811 15.0524Z" fill="#344759"/>
<path d="M19.0771 15.2424H36.4736C37.0687 18.507 36.9077 21.8645 36.003 25.0572C35.1707 27.9931 33.5539 30.6466 31.3265 32.7324C29.3712 31.2067 27.4071 29.6927 25.4517 28.167C26.4211 27.5131 27.2486 26.6702 27.8844 25.6889C28.5202 24.7075 28.9514 23.6079 29.152 22.4559H19.0771C19.0742 20.0534 19.0771 17.6479 19.0771 15.2424Z" fill="#344759"/>
<path d="M2.55743 27.0066C4.57806 25.4478 6.59771 23.8812 8.61639 22.3068C9.39738 24.5988 10.8827 26.5854 12.8603 27.9828C14.0937 28.8546 15.4953 29.4598 16.9756 29.7599C18.4342 30.0311 19.9304 30.0311 21.389 29.7599C22.8434 29.5137 24.2302 28.9661 25.4604 28.1524C27.4158 29.678 29.3799 31.1921 31.3353 32.7178C29.1955 34.6635 26.5869 36.0202 23.7652 36.6548C20.6507 37.3869 17.405 37.3518 14.3071 36.5525C11.8569 35.8983 9.56827 34.745 7.58464 33.1649C5.48508 31.498 3.77026 29.3974 2.55743 27.0066Z" fill="#344759"/>
</svg>
