<svg width="57" height="61" viewBox="0 0 57 61" fill="none" xmlns="http://www.w3.org/2000/svg">
<path d="M34.0877 1.25518C35.3617 0.691899 36.7461 0.423503 38.138 0.469205C39.5302 0.514979 40.8949 0.873713 42.1297 1.51966C43.3644 2.16558 44.4382 3.08191 45.2714 4.2002C46.1046 5.31859 46.6758 6.61087 46.9426 7.98051L46.9477 8.00557L46.9722 8.00549C49.3813 8.05706 51.6753 9.05074 53.3638 10.7734L53.3745 10.7842L53.3852 10.7833C54.939 12.3545 55.883 14.4292 56.0473 16.6349C56.2119 18.8457 55.5825 21.0429 54.2725 22.8294C52.9623 24.616 51.0573 25.8749 48.9022 26.3783C46.7473 26.8816 44.4835 26.597 42.5195 25.5755L42.5113 25.5713L42.4636 25.5753L42.4556 25.5848L25.8383 45.265L25.8303 45.2745L25.8338 45.3163L25.8393 45.3237C26.6699 46.444 27.2375 47.7375 27.5011 49.1077C27.7647 50.4779 27.7168 51.89 27.3613 53.2391C27.0059 54.5883 26.3521 55.84 25.4479 56.9013C24.5436 57.9625 23.4118 58.8063 22.1376 59.3698C20.8635 59.9331 19.4793 60.2025 18.0874 60.1567C16.6952 60.111 15.3305 59.7513 14.0956 59.1053C12.861 58.4594 11.7871 57.5431 10.954 56.4248C10.1209 55.3065 9.5496 54.0149 9.28275 52.6454L9.27772 52.6204L9.25315 52.6195L8.73242 52.5914C7.52104 52.4911 6.339 52.1533 5.25485 51.5951C4.01594 50.9572 2.93664 50.0475 2.09622 48.9346C1.25585 47.8217 0.67617 46.5338 0.400433 45.1661C0.124721 43.7982 0.159265 42.3852 0.502833 41.0329C0.846402 39.6806 1.48958 38.4231 2.38445 37.3538C3.27934 36.2846 4.40358 35.4315 5.6728 34.8568C6.94202 34.282 8.32453 34.0006 9.71708 34.034C11.1094 34.0676 12.4763 34.4147 13.7166 35.0496L13.7248 35.0538L13.7725 35.0498L13.7805 35.0403L30.3871 15.361L30.3942 15.3526L30.3944 15.3427C30.3949 15.333 30.394 15.323 30.3919 15.3135L30.3949 15.3133L30.387 15.3012L30.0877 14.8735C29.4189 13.8566 28.9549 12.7162 28.7242 11.5173C28.4607 10.1471 28.5086 8.73488 28.864 7.38583C29.2195 6.03676 29.8732 4.7849 30.7774 3.72372C31.6817 2.66246 32.8135 1.81864 34.0877 1.25518ZM38.8308 4.63108C38.0079 4.46659 37.1571 4.50414 36.3518 4.74004C35.5467 4.97597 34.8102 5.4029 34.2056 5.98541C33.6009 6.56809 33.146 7.28944 32.8794 8.08642C32.6129 8.8833 32.5422 9.73326 32.6743 10.5633C32.8064 11.3933 33.1376 12.1788 33.6383 12.8533C34.2005 13.5962 34.4941 14.5086 34.4713 15.4404C34.4483 16.3723 34.1101 17.2691 33.5121 17.9831L16.883 37.6741C16.2801 38.3873 15.4529 38.8736 14.5373 39.0528C13.7362 39.2095 12.9091 39.1235 12.1612 38.8092L11.845 38.6602C11.0975 38.2803 10.2694 38.0868 9.43139 38.0963C8.59333 38.1058 7.76963 38.3174 7.03105 38.7142C6.29254 39.1109 5.66055 39.6812 5.189 40.3751C4.71758 41.069 4.42012 41.8667 4.32248 42.7004C4.22485 43.5342 4.33033 44.3794 4.62873 45.1639C4.92716 45.9485 5.40988 46.6498 6.03668 47.2072C6.66353 47.7646 7.41626 48.1619 8.22934 48.3657C9.04217 48.5693 9.892 48.5734 10.7066 48.3774C10.8086 48.3528 10.9125 48.3357 11.0169 48.326C11.3103 48.3013 11.6062 48.3404 11.883 48.4409C12.1597 48.5415 12.4113 48.7012 12.6206 48.9085C12.83 49.1159 12.9927 49.3659 13.0963 49.642C13.1999 49.9181 13.2416 50.2136 13.2204 50.5077C13.1615 51.3462 13.3058 52.1872 13.6411 52.9578C13.9764 53.7281 14.4932 54.4057 15.1463 54.9331C15.7997 55.4606 16.5711 55.8226 17.394 55.9871C18.2169 56.1516 19.0676 56.114 19.873 55.8781C20.6782 55.6422 21.4144 55.2144 22.0191 54.6318C22.6237 54.0491 23.0787 53.3287 23.3453 52.5317C23.6119 51.7348 23.6826 50.885 23.5505 50.0549C23.4184 49.225 23.088 48.4392 22.5874 47.7648L22.5864 47.7639C22.0217 47.0203 21.7264 46.1062 21.7491 45.1722C21.7719 44.2381 22.1114 43.3393 22.7117 42.6243L39.3409 22.9333C39.9437 22.2202 40.771 21.7339 41.6866 21.5547C42.4879 21.3979 43.3156 21.4837 44.0637 21.7982L44.3789 21.9473C45.4788 22.5151 46.7448 22.6718 47.9494 22.3891C49.1487 22.1076 50.2083 21.4085 50.9415 20.4175L50.9426 20.4184L50.9434 20.4164L50.9444 20.4173L50.9531 20.4038L50.9521 20.4029C51.5874 19.5443 51.9462 18.512 51.9754 17.4432C52.0048 16.3684 51.7007 15.3108 51.1067 14.4152C50.5125 13.5196 49.6565 12.8296 48.6559 12.4404C47.6554 12.0512 46.5596 11.9816 45.5181 12.2407C45.2064 12.3166 44.881 12.3174 44.5688 12.2436C44.2566 12.1697 43.9657 12.0231 43.7207 11.8156C43.4757 11.6079 43.2825 11.3445 43.158 11.0482C43.0336 10.752 42.9813 10.43 43.0043 10.1095C43.0631 9.27116 42.9189 8.43085 42.5836 7.66041C42.2483 6.88983 41.7317 6.21157 41.0783 5.68407C40.425 5.15658 39.6537 4.79557 38.8308 4.63108Z" fill="#D4E9FF" stroke="#D4E9FF" stroke-width="0.0625"/>
</svg>
