<svg width="59" height="59" viewBox="0 0 59 59" fill="none" xmlns="http://www.w3.org/2000/svg">
<path d="M57.5696 37.7943C58.0143 39.1155 58.1557 40.5198 57.9836 41.9031C57.8115 43.2865 57.3301 44.6138 56.5752 45.7857C55.8202 46.9576 54.8111 47.945 53.6227 48.6737C52.4342 49.4025 51.096 49.8541 49.7089 49.9955L49.6845 49.9983L49.6813 50.0236C49.4108 52.4202 48.2136 54.6159 46.3461 56.1421L46.3353 56.1518L46.3352 56.1616C44.6304 57.5679 42.4796 58.3208 40.2695 58.2838C38.0548 58.2467 35.9264 57.4187 34.2681 55.9504C32.6098 54.4821 31.5306 52.4697 31.2257 50.2759C30.9208 48.0821 31.4101 45.8515 32.6052 43.9868L32.6101 43.979L32.6105 43.9311L32.6018 43.9213L14.5315 25.5696L14.5228 25.5598L14.4798 25.5594L14.4729 25.5643C13.2826 26.2902 11.9436 26.7391 10.5562 26.8772C9.16902 27.0153 7.76853 26.8395 6.45859 26.3626C5.1485 25.8855 3.96248 25.1192 2.98878 24.1213C2.01519 23.1235 1.27848 21.9196 0.833757 20.5984C0.389013 19.2771 0.24756 17.8721 0.41973 16.4886C0.591925 15.1054 1.07336 13.7788 1.82818 12.607C2.58322 11.4349 3.59304 10.4477 4.78162 9.71897C5.97014 8.99028 7.3075 8.53854 8.69446 8.39717L8.7189 8.39443L8.72203 8.36906L8.79737 7.85304C9.00738 6.6547 9.45114 5.50736 10.1052 4.47748C10.8525 3.30065 11.8555 2.30725 13.0392 1.57079C14.2229 0.834368 15.5575 0.37396 16.9435 0.223527C18.3296 0.0731353 19.732 0.236678 21.0463 0.702107C22.3605 1.16754 23.5534 1.92303 24.5359 2.91224C25.5181 3.90129 26.2649 5.09881 26.7213 6.41587C27.1777 7.73323 27.3324 9.13713 27.1725 10.5221C27.0125 11.9069 26.5427 13.2381 25.7981 14.4167L25.7932 14.4244L25.7928 14.4723L25.8015 14.4812L43.8719 32.8231L43.8787 32.831L43.8894 32.832C43.899 32.8334 43.9091 32.8335 43.9187 32.8323L43.9187 32.8352L43.9305 32.8284L44.3837 32.5683C45.4562 31.9942 46.6332 31.6363 47.8471 31.5155C49.2344 31.3774 50.6348 31.5532 51.9448 32.0301C53.2548 32.5071 54.4409 33.2726 55.4146 34.2704C56.3883 35.2682 57.1249 36.4729 57.5696 37.7943ZM53.7799 42.2148C54.0183 41.4098 54.0584 40.5591 53.897 39.7352C53.7356 38.911 53.3769 38.1375 52.8522 37.4818C52.3275 36.8262 51.6521 36.3074 50.8835 35.9692C50.1148 35.6309 49.2756 35.4836 48.4376 35.5398C47.5997 35.5959 46.788 35.854 46.0713 36.2917L46.0703 36.2917C45.2801 36.7843 44.3461 36.9936 43.421 36.8861C42.4958 36.7785 41.6343 36.3599 40.9781 35.6989L22.8982 17.3334C22.2436 16.6676 21.8347 15.7989 21.7397 14.8701C21.6448 13.9411 21.8693 13.0072 22.3758 12.2227C22.8217 11.5123 23.0902 10.7045 23.157 9.86841C23.2238 9.03224 23.0868 8.19213 22.7592 7.41989C22.4316 6.64766 21.9224 5.96572 21.2748 5.43257C20.6272 4.89954 19.8607 4.53048 19.04 4.35734C18.2192 4.18417 17.3686 4.21231 16.5608 4.43842C15.753 4.66454 15.0114 5.08176 14.3998 5.65583C13.7882 6.22989 13.3242 6.9433 13.0475 7.7351C12.7708 8.52689 12.6903 9.37405 12.8113 10.204C12.8265 10.308 12.8341 10.4136 12.8342 10.5187C12.832 10.8132 12.7661 11.104 12.641 11.3707C12.5157 11.6374 12.3335 11.8739 12.1082 12.0638C11.8829 12.2535 11.6194 12.3927 11.3354 12.4708C11.1223 12.5294 10.9012 12.5521 10.6815 12.5399L10.462 12.5157C9.63316 12.3808 8.78382 12.4489 7.98672 12.713C7.18955 12.9772 6.46776 13.4302 5.88351 14.0334C5.29944 14.6366 4.8698 15.372 4.63129 16.177C4.39279 16.9821 4.35272 17.8335 4.51415 18.6576C4.67562 19.4817 5.03423 20.2553 5.55899 20.911C6.08368 21.5665 6.75908 22.0854 7.52764 22.4236C8.29639 22.7618 9.13558 22.9091 9.97356 22.853C10.8115 22.7968 11.6232 22.5388 12.3399 22.1011L12.3409 22.1011L12.644 21.9287C13.3661 21.5578 14.1846 21.4076 14.996 21.5018C15.9232 21.6095 16.7861 22.0297 17.4428 22.693L35.5228 41.0584C36.1776 41.7243 36.5862 42.5937 36.6812 43.5227C36.7762 44.4517 36.5517 45.3856 36.0452 46.1701C35.3803 47.2148 35.1095 48.4623 35.2812 49.6887C35.4521 50.9095 36.0511 52.0295 36.9703 52.8505L36.9693 52.8514C37.7681 53.5698 38.7703 54.0244 39.8371 54.1514C40.9038 54.2783 41.9837 54.0721 42.9287 53.5614C43.8739 53.0507 44.6382 52.2602 45.1165 51.2983C45.5948 50.3363 45.7632 49.2496 45.5999 48.1877C45.5529 47.8702 45.5816 47.5456 45.6835 47.2411C45.7855 46.9367 45.9582 46.6607 46.187 46.4355C46.4158 46.2102 46.6952 46.0419 47.0014 45.9448C47.3074 45.8478 47.6324 45.824 47.9492 45.8761C48.7781 46.011 49.6273 45.9439 50.4245 45.6797C51.2216 45.4155 51.9434 44.9626 52.5277 44.3593C53.1119 43.7561 53.5414 43.02 53.7799 42.2148Z" fill="#D4E9FF" stroke="#D4E9FF" stroke-width="0.0625"/>
</svg>
